<svg width="48" height="39" viewBox="0 0 48 39" fill="none" xmlns="http://www.w3.org/2000/svg">
<path d="M32 0.760376C29.0533 0.760376 26.6667 3.14704 26.6667 6.09371V16.7604C26.6667 19.707 29.0533 22.0937 32 22.0937H40.026L31.2292 33.9114C29.9225 35.6688 31.1751 38.1666 33.3698 38.1666C34.2125 38.1666 35.0012 37.771 35.5052 37.0937L46.9479 21.7239C47.6306 20.8039 48 19.6883 48 18.5416V6.09371C48 3.14704 45.6133 0.760376 42.6667 0.760376H32ZM5.33333 0.833293C2.38667 0.833293 0 3.21996 0 6.16663V16.8333C0 19.78 2.38667 22.1666 5.33333 22.1666H13.3594L4.61458 33.9062C3.30792 35.6662 4.56054 38.1666 6.75521 38.1666C7.59788 38.1666 8.39183 37.771 8.89583 37.0937L20.2812 21.7968C20.9639 20.8768 21.3333 19.7639 21.3333 18.6145V6.16663C21.3333 3.21996 18.9467 0.833293 16 0.833293H5.33333Z" fill="#18181B"/>
</svg>
